<svg width="50" height="50" viewBox="0 0 50 50" fill="none" xmlns="http://www.w3.org/2000/svg">
<circle cx="25" cy="25" r="24" stroke="#B00EFD" stroke-width="2"/>
<path d="M13.1997 7H13" stroke="#B00EFD" stroke-linecap="round"/>
<path d="M29.377 3.94247V4.14213" stroke="#B00EFD" stroke-linecap="round"/>
<path d="M32.3718 5.34004H32.5715" stroke="#B00EFD" stroke-linecap="round"/>
<path d="M39.3596 9.93202H39.1599" stroke="#B00EFD" stroke-linecap="round"/>
<path d="M42.3542 13.3261H42.1545" stroke="#B00EFD" stroke-linecap="round"/>
<path d="M10.4101 9.13341H10.2104" stroke="#B00EFD" stroke-linecap="round"/>
<path d="M25 3C25.023 3.18395 25.0648 3.13223 25.1997 3.19965" stroke="#B00EFD" stroke-linecap="round"/>
<path d="M20 4H20.3993" stroke="#B00EFD" stroke-linecap="round"/>
<path d="M16 5.3993C16.0207 5.21294 16.1005 5.14878 16.1997 5" stroke="#B00EFD" stroke-linecap="round"/>
<path d="M35.7658 7.53621H35.5662" stroke="#B00EFD" stroke-linecap="round"/>
<line x1="14" y1="17.5" x2="19" y2="17.5" stroke="#AD00FF"/>
<line x1="31" y1="17.5" x2="36" y2="17.5" stroke="#AD00FF"/>
<path d="M26.5 35L28 35.5L30.5 35" stroke="#AD00FF"/>
<path d="M16.3997 18.517H16.799" stroke="#AD00FF" stroke-linecap="round"/>
<path d="M32.9707 18.3174H33.37" stroke="#AD00FF" stroke-linecap="round"/>
<path d="M26.7986 36.1962C26.7116 35.4129 26 34.8937 26 34" stroke="#AD00FF" stroke-linecap="round"/>
<path d="M29.7761 36.0864C29.7761 35.082 30.0714 34.6015 30.3751 33.6905" stroke="#AD00FF" stroke-linecap="round"/>
</svg>
