<svg width="94" height="92" viewBox="0 0 94 92" fill="none" xmlns="http://www.w3.org/2000/svg">
<g filter="url(#filter0_d_1_59)">
<mask id="path-1-inside-1_1_59" fill="white">
<path d="M1.78142 42.0318C2.44889 19.2435 21.4714 0.77 44.2694 0.77H52.4806C75.2786 0.77 93.2189 19.2435 92.5514 42.0318C91.8839 64.82 72.8614 83.2935 50.0634 83.2935H41.8523C19.0543 83.2935 1.11394 64.82 1.78142 42.0318Z"/>
</mask>
<path d="M1.78142 42.0318C2.44889 19.2435 21.4714 0.77 44.2694 0.77H52.4806C75.2786 0.77 93.2189 19.2435 92.5514 42.0318C91.8839 64.82 72.8614 83.2935 50.0634 83.2935H41.8523C19.0543 83.2935 1.11394 64.82 1.78142 42.0318Z" fill="#F8F8F8" shape-rendering="crispEdges"/>
<g opacity="0.4">
<mask id="path-3-inside-2_1_59" fill="white">
<path d="M17.1847 41.8997C17.6571 25.7731 31.1187 12.7 47.2521 12.7H48.4878C64.6213 12.7 77.3171 25.7731 76.8447 41.8997C76.3724 58.0262 62.9107 71.0993 46.7773 71.0993H45.5416C29.4082 71.0993 16.7124 58.0262 17.1847 41.8997Z"/>
</mask>
<path d="M17.1847 41.8997C17.6571 25.7731 31.1187 12.7 47.2521 12.7H48.4878C64.6213 12.7 77.3171 25.7731 76.8447 41.8997C76.3724 58.0262 62.9107 71.0993 46.7773 71.0993H45.5416C29.4082 71.0993 16.7124 58.0262 17.1847 41.8997Z" fill="#FFFBFB"/>
<path d="M17.3423 36.5198C17.8246 20.0522 31.571 6.70257 48.0456 6.70257C64.5203 6.70257 77.4846 20.0522 77.0023 36.5198L76.8447 41.8997C77.22 29.0854 64.4456 18.6974 48.3121 18.6974H47.0765C30.943 18.6974 17.56 29.0854 17.1847 41.8997L17.3423 36.5198ZM75.9894 71.0993H16.3294H75.9894ZM16.3294 71.0993L18.04 12.7L16.3294 71.0993ZM77.7 12.7L75.9894 71.0993L77.7 12.7Z" fill="#7D7575" mask="url(#path-3-inside-2_1_59)"/>
</g>
<path d="M2.98999 0.77H93.76H2.98999ZM92.5252 42.9258C91.7914 67.9805 70.8769 88.2914 45.8115 88.2914C20.746 88.2914 1.02137 67.9805 1.75523 42.9258L1.78142 42.0318C1.19479 62.0598 19.2007 78.2957 41.9987 78.2957H50.2098C73.0078 78.2957 91.9648 62.0598 92.5514 42.0318L92.5252 42.9258ZM0.572843 83.2935L2.98999 0.77L0.572843 83.2935ZM93.76 0.77L91.3428 83.2935L93.76 0.77Z" fill="#DDDDDD" mask="url(#path-1-inside-1_1_59)"/>
</g>
<defs>
<filter id="filter0_d_1_59" x="0.572845" y="0.77" width="93.1871" height="90.5235" filterUnits="userSpaceOnUse" color-interpolation-filters="sRGB">
<feFlood flood-opacity="0" result="BackgroundImageFix"/>
<feColorMatrix in="SourceAlpha" type="matrix" values="0 0 0 0 0 0 0 0 0 0 0 0 0 0 0 0 0 0 127 0" result="hardAlpha"/>
<feOffset dy="8"/>
<feComposite in2="hardAlpha" operator="out"/>
<feColorMatrix type="matrix" values="0 0 0 0 0 0 0 0 0 0 0 0 0 0 0 0 0 0 0.1 0"/>
<feBlend mode="normal" in2="BackgroundImageFix" result="effect1_dropShadow_1_59"/>
<feBlend mode="normal" in="SourceGraphic" in2="effect1_dropShadow_1_59" result="shape"/>
</filter>
</defs>
</svg>
