<svg width="94" height="90" viewBox="0 0 94 90" fill="none" xmlns="http://www.w3.org/2000/svg">
<g filter="url(#filter0_d_35_17)">
<mask id="path-1-inside-1_35_17" fill="white">
<path d="M1.19971 40.959C1.86229 18.338 20.7452 0 43.376 0H52.1928C74.8236 0 92.6323 18.338 91.9697 40.959V40.959C91.3071 63.5801 72.4242 81.9181 49.7934 81.9181H40.9766C18.3458 81.9181 0.537128 63.5801 1.19971 40.959V40.959Z"/>
</mask>
<path d="M1.19971 40.959C1.86229 18.338 20.7452 0 43.376 0H52.1928C74.8236 0 92.6323 18.338 91.9697 40.959V40.959C91.3071 63.5801 72.4242 81.9181 49.7934 81.9181H40.9766C18.3458 81.9181 0.537128 63.5801 1.19971 40.959V40.959Z" fill="#79BBE0" shape-rendering="crispEdges"/>
<g opacity="0.4">
<mask id="path-3-inside-2_35_17" fill="white">
<path d="M17.8565 41.0502C18.3275 24.9676 31.7526 11.93 47.8422 11.93H49.2367C65.3263 11.93 77.9875 24.9676 77.5165 41.0502V41.0502C77.0454 57.1329 63.6203 70.1705 47.5308 70.1705H46.1362C30.0467 70.1705 17.3854 57.1329 17.8565 41.0502V41.0502Z"/>
</mask>
<path d="M17.8565 41.0502C18.3275 24.9676 31.7526 11.93 47.8422 11.93H49.2367C65.3263 11.93 77.9875 24.9676 77.5165 41.0502V41.0502C77.0454 57.1329 63.6203 70.1705 47.5308 70.1705H46.1362C30.0467 70.1705 17.3854 57.1329 17.8565 41.0502V41.0502Z" fill="#F1D2FF"/>
<path d="M18.0117 35.7498C18.4941 19.2822 32.2404 5.93257 48.7151 5.93257C65.1897 5.93257 78.1541 19.2822 77.6717 35.7498L77.5165 41.0502C77.8905 28.2799 65.1506 17.9274 49.061 17.9274H47.6665C31.5769 17.9274 18.2305 28.2799 17.8565 41.0502L18.0117 35.7498ZM76.6635 70.1705H17.0035H76.6635ZM17.0035 70.1705L18.7094 11.93L17.0035 70.1705ZM78.3694 11.93L76.6635 70.1705L78.3694 11.93Z" fill="#7D7575" mask="url(#path-3-inside-2_35_17)"/>
</g>
<path d="M2.39941 0H93.1694H2.39941ZM91.9524 41.5504C91.2185 66.6051 70.3041 86.9159 45.2386 86.9159H45.2386C20.1732 86.9159 0.448525 66.6051 1.18239 41.5504L1.19971 40.959C0.617977 60.8198 18.4922 76.9202 41.123 76.9202H49.9398C72.5705 76.9202 91.388 60.8198 91.9697 40.959L91.9524 41.5504ZM1.13211e-06 81.9181L2.39941 0L1.13211e-06 81.9181ZM93.1694 0L90.77 81.9181L93.1694 0Z" fill="#73009B" mask="url(#path-1-inside-1_35_17)"/>
</g>
<defs>
<filter id="filter0_d_35_17" x="0" y="0" width="93.1694" height="89.9181" filterUnits="userSpaceOnUse" color-interpolation-filters="sRGB">
<feFlood flood-opacity="0" result="BackgroundImageFix"/>
<feColorMatrix in="SourceAlpha" type="matrix" values="0 0 0 0 0 0 0 0 0 0 0 0 0 0 0 0 0 0 127 0" result="hardAlpha"/>
<feOffset dy="8"/>
<feComposite in2="hardAlpha" operator="out"/>
<feColorMatrix type="matrix" values="0 0 0 0 0 0 0 0 0 0 0 0 0 0 0 0 0 0 0.1 0"/>
<feBlend mode="normal" in2="BackgroundImageFix" result="effect1_dropShadow_35_17"/>
<feBlend mode="normal" in="SourceGraphic" in2="effect1_dropShadow_35_17" result="shape"/>
</filter>
</defs>
</svg>
